<?xml version="1.0" standalone="no"?>
<!DOCTYPE svg PUBLIC "-//W3C//DTD SVG 20010904//EN"
 "http://www.w3.org/TR/2001/REC-SVG-20010904/DTD/svg10.dtd">
<svg version="1.0" xmlns="http://www.w3.org/2000/svg"
 width="1200.000000pt" height="1200.000000pt" viewBox="0 0 1200.000000 1200.000000"
 preserveAspectRatio="xMidYMid meet">

<g transform="translate(0.000000,1200.000000) scale(0.100000,-0.100000)"
fill="#fb6f92" stroke="none">
<path d="M7181 9317 c-320 -200 -565 -398 -861 -696 -358 -358 -537 -608 -658
-916 -104 -263 -135 -564 -75 -718 64 -162 203 -247 387 -235 196 13 294 144
476 633 164 441 255 643 420 930 157 272 401 630 582 852 32 39 58 76 58 81 0
8 -139 116 -186 145 -7 4 -71 -30 -143 -76z"/>
<path d="M3205 9359 c-300 -31 -493 -95 -727 -240 -126 -78 -225 -156 -342
-269 -131 -127 -215 -236 -270 -350 -39 -80 -41 -90 -41 -175 0 -133 12 -151
242 -362 66 -61 130 -131 156 -170 25 -38 95 -173 155 -301 411 -865 959
-1760 1515 -2477 1272 -1637 2856 -2862 4801 -3711 135 -59 172 -72 181 -62 7
7 46 66 88 130 l76 118 -42 24 c-23 13 -109 61 -192 106 -1900 1050 -3685
2775 -4918 4750 -375 602 -696 1246 -848 1700 -120 361 -129 517 -34 638 87
112 322 247 630 363 77 28 142 53 144 55 1 1 -15 56 -36 121 l-40 118 -209 1
c-115 1 -245 -2 -289 -7z"/>
<path d="M9874 8584 c-291 -183 -538 -389 -865 -720 -389 -396 -566 -628 -715
-939 -107 -225 -154 -402 -154 -587 0 -153 32 -252 108 -331 120 -126 351
-139 492 -27 93 74 169 213 335 615 133 323 228 528 345 747 196 368 417 703
674 1023 l89 109 -34 29 c-108 90 -167 137 -176 137 -6 0 -50 -25 -99 -56z"/>
</g>
</svg>
